<?xml version="1.0" encoding="UTF-8" standalone="no"?>
<!DOCTYPE svg PUBLIC "-//W3C//DTD SVG 1.1//EN"
 "http://www.w3.org/Graphics/SVG/1.1/DTD/svg11.dtd">
<!-- Generated by graphviz version 2.43.0 (0)
 -->
<!-- Title: G Pages: 1 -->
<svg width="944pt" height="1094pt"
 viewBox="0.00 0.00 944.00 1094.15" xmlns="http://www.w3.org/2000/svg" xmlns:xlink="http://www.w3.org/1999/xlink">
<g id="graph0" class="graph" transform="scale(1 1) rotate(0) translate(4 1090.15)">
<title>G</title>
<polygon fill="white" stroke="transparent" points="-4,4 -4,-1090.15 940,-1090.15 940,4 -4,4"/>
<!-- gitlab.aescorp.ru/dsp_dev/claim/nikitin/calendar -->
<g id="node1" class="node">
<title>gitlab.aescorp.ru/dsp_dev/claim/nikitin/calendar</title>
<g id="a_node1"><a xlink:href="https://pkg.go.dev/gitlab.aescorp.ru/dsp_dev/claim/nikitin/calendar" xlink:title="calendar" target="_graphviz">
<polygon fill="none" stroke="#07917a" stroke-width="2" stroke-opacity="0.698039" points="90,-151.87 18,-151.87 18,-115.87 90,-115.87 90,-151.87"/>
<text text-anchor="middle" x="54" y="-131.37" font-family="Times,serif" font-size="10.00">calendar</text>
</a>
</g>
</g>
<!-- gitlab.aescorp.ru/dsp_dev/claim/nikitin/camunda_connect -->
<g id="node2" class="node">
<title>gitlab.aescorp.ru/dsp_dev/claim/nikitin/camunda_connect</title>
<g id="a_node2"><a xlink:href="https://pkg.go.dev/gitlab.aescorp.ru/dsp_dev/claim/nikitin/camunda_connect" xlink:title="camunda_connect" target="_graphviz">
<polygon fill="none" stroke="#072e91" stroke-width="2" stroke-opacity="0.698039" points="360,-701.87 216,-701.87 216,-665.87 360,-665.87 360,-701.87"/>
<text text-anchor="middle" x="288" y="-681.37" font-family="Times,serif" font-size="10.00">camunda_connect</text>
</a>
</g>
</g>
<!-- gitlab.aescorp.ru/dsp_dev/claim/nikitin/contextmain -->
<g id="node6" class="node">
<title>gitlab.aescorp.ru/dsp_dev/claim/nikitin/contextmain</title>
<g id="a_node6"><a xlink:href="https://pkg.go.dev/gitlab.aescorp.ru/dsp_dev/claim/nikitin/contextmain" xlink:title="contextmain" target="_graphviz">
<polygon fill="none" stroke="#899107" stroke-width="2" stroke-opacity="0.698039" points="756,-381.87 648,-381.87 648,-345.87 756,-345.87 756,-381.87"/>
<text text-anchor="middle" x="702" y="-361.37" font-family="Times,serif" font-size="10.00">contextmain</text>
</a>
</g>
</g>
<!-- gitlab.aescorp.ru/dsp_dev/claim/nikitin/camunda_connect&#45;&gt;gitlab.aescorp.ru/dsp_dev/claim/nikitin/contextmain -->
<g id="edge1" class="edge">
<title>gitlab.aescorp.ru/dsp_dev/claim/nikitin/camunda_connect:e&#45;&gt;gitlab.aescorp.ru/dsp_dev/claim/nikitin/contextmain</title>
<path fill="none" stroke="#899107" stroke-width="2" stroke-opacity="0.698039" d="M360,-683.87C530.51,-683.87 650.75,-468.5 688.45,-391.13"/>
<polygon fill="#899107" fill-opacity="0.698039" stroke="#899107" stroke-width="2" stroke-opacity="0.698039" points="691.67,-392.52 692.83,-381.99 685.35,-389.49 691.67,-392.52"/>
</g>
<!-- gitlab.aescorp.ru/dsp_dev/claim/nikitin/logger -->
<g id="node10" class="node">
<title>gitlab.aescorp.ru/dsp_dev/claim/nikitin/logger</title>
<g id="a_node10"><a xlink:href="https://pkg.go.dev/gitlab.aescorp.ru/dsp_dev/claim/nikitin/logger" xlink:title="logger" target="_graphviz">
<polygon fill="none" stroke="#91070d" stroke-width="2" stroke-opacity="0.698039" points="738,-587.87 666,-587.87 666,-551.87 738,-551.87 738,-587.87"/>
<text text-anchor="middle" x="702" y="-567.37" font-family="Times,serif" font-size="10.00">logger</text>
</a>
</g>
</g>
<!-- gitlab.aescorp.ru/dsp_dev/claim/nikitin/camunda_connect&#45;&gt;gitlab.aescorp.ru/dsp_dev/claim/nikitin/logger -->
<g id="edge2" class="edge">
<title>gitlab.aescorp.ru/dsp_dev/claim/nikitin/camunda_connect:e&#45;&gt;gitlab.aescorp.ru/dsp_dev/claim/nikitin/logger</title>
<path fill="none" stroke="#91070d" stroke-width="2" stroke-opacity="0.698039" d="M360,-683.87C440.24,-683.87 464.24,-724.31 540,-697.87 598.12,-677.58 650.97,-626.57 679.3,-595.42"/>
<polygon fill="#91070d" fill-opacity="0.698039" stroke="#91070d" stroke-width="2" stroke-opacity="0.698039" points="681.91,-597.75 685.96,-587.95 676.69,-593.08 681.91,-597.75"/>
</g>
<!-- gitlab.aescorp.ru/dsp_dev/claim/nikitin/micro -->
<g id="node11" class="node">
<title>gitlab.aescorp.ru/dsp_dev/claim/nikitin/micro</title>
<g id="a_node11"><a xlink:href="https://pkg.go.dev/gitlab.aescorp.ru/dsp_dev/claim/nikitin/micro" xlink:title="micro" target="_graphviz">
<polygon fill="none" stroke="#629107" stroke-width="2" stroke-opacity="0.698039" points="936,-556.87 864,-556.87 864,-520.87 936,-520.87 936,-556.87"/>
<text text-anchor="middle" x="900" y="-536.37" font-family="Times,serif" font-size="10.00">micro</text>
</a>
</g>
</g>
<!-- gitlab.aescorp.ru/dsp_dev/claim/nikitin/camunda_connect&#45;&gt;gitlab.aescorp.ru/dsp_dev/claim/nikitin/micro -->
<g id="edge3" class="edge">
<title>gitlab.aescorp.ru/dsp_dev/claim/nikitin/camunda_connect:e&#45;&gt;gitlab.aescorp.ru/dsp_dev/claim/nikitin/micro</title>
<path fill="none" stroke="#629107" stroke-width="2" stroke-opacity="0.698039" d="M360,-683.87C518.13,-683.87 340.34,-929.55 468,-1022.87 493.83,-1041.75 508.62,-1029.14 540,-1022.87 641.98,-1002.47 684.2,-1008.1 756,-932.87 858.75,-825.21 888.59,-638.13 896.44,-567.21"/>
<polygon fill="#629107" fill-opacity="0.698039" stroke="#629107" stroke-width="2" stroke-opacity="0.698039" points="899.93,-567.55 897.48,-557.24 892.96,-566.82 899.93,-567.55"/>
</g>
<!-- gitlab.aescorp.ru/dsp_dev/claim/nikitin/ping -->
<g id="node16" class="node">
<title>gitlab.aescorp.ru/dsp_dev/claim/nikitin/ping</title>
<g id="a_node16"><a xlink:href="https://pkg.go.dev/gitlab.aescorp.ru/dsp_dev/claim/nikitin/ping" xlink:title="ping" target="_graphviz">
<polygon fill="none" stroke="#07915b" stroke-width="2" stroke-opacity="0.698039" points="540,-297.87 468,-297.87 468,-261.87 540,-261.87 540,-297.87"/>
<text text-anchor="middle" x="504" y="-277.37" font-family="Times,serif" font-size="10.00">ping</text>
</a>
</g>
</g>
<!-- gitlab.aescorp.ru/dsp_dev/claim/nikitin/camunda_connect&#45;&gt;gitlab.aescorp.ru/dsp_dev/claim/nikitin/ping -->
<g id="edge4" class="edge">
<title>gitlab.aescorp.ru/dsp_dev/claim/nikitin/camunda_connect:e&#45;&gt;gitlab.aescorp.ru/dsp_dev/claim/nikitin/ping</title>
<path fill="none" stroke="#07915b" stroke-width="2" stroke-opacity="0.698039" d="M360,-683.87C399.94,-683.87 473.5,-399.58 496.17,-307.96"/>
<polygon fill="#07915b" fill-opacity="0.698039" stroke="#07915b" stroke-width="2" stroke-opacity="0.698039" points="499.63,-308.56 498.62,-298.01 492.83,-306.88 499.63,-308.56"/>
</g>
<!-- gitlab.aescorp.ru/dsp_dev/claim/nikitin/stopapp -->
<g id="node21" class="node">
<title>gitlab.aescorp.ru/dsp_dev/claim/nikitin/stopapp</title>
<g id="a_node21"><a xlink:href="https://pkg.go.dev/gitlab.aescorp.ru/dsp_dev/claim/nikitin/stopapp" xlink:title="stopapp" target="_graphviz">
<polygon fill="none" stroke="#912907" stroke-width="2" stroke-opacity="0.698039" points="540,-465.87 468,-465.87 468,-429.87 540,-429.87 540,-465.87"/>
<text text-anchor="middle" x="504" y="-445.37" font-family="Times,serif" font-size="10.00">stopapp</text>
</a>
</g>
</g>
<!-- gitlab.aescorp.ru/dsp_dev/claim/nikitin/camunda_connect&#45;&gt;gitlab.aescorp.ru/dsp_dev/claim/nikitin/stopapp -->
<g id="edge5" class="edge">
<title>gitlab.aescorp.ru/dsp_dev/claim/nikitin/camunda_connect:e&#45;&gt;gitlab.aescorp.ru/dsp_dev/claim/nikitin/stopapp</title>
<path fill="none" stroke="#912907" stroke-width="2" stroke-opacity="0.698039" d="M360,-683.87C456.23,-683.87 489.49,-538.55 499.35,-475.98"/>
<polygon fill="#912907" fill-opacity="0.698039" stroke="#912907" stroke-width="2" stroke-opacity="0.698039" points="502.83,-476.4 500.83,-465.99 495.9,-475.37 502.83,-476.4"/>
</g>
<!-- gitlab.aescorp.ru/dsp_dev/claim/nikitin/chatgpt_connect -->
<g id="node3" class="node">
<title>gitlab.aescorp.ru/dsp_dev/claim/nikitin/chatgpt_connect</title>
<g id="a_node3"><a xlink:href="https://pkg.go.dev/gitlab.aescorp.ru/dsp_dev/claim/nikitin/chatgpt_connect" xlink:title="chatgpt_connect" target="_graphviz">
<polygon fill="none" stroke="#5a0791" stroke-width="2" stroke-opacity="0.698039" points="342,-492.87 234,-492.87 234,-456.87 342,-456.87 342,-492.87"/>
<text text-anchor="middle" x="288" y="-472.37" font-family="Times,serif" font-size="10.00">chatgpt_connect</text>
</a>
</g>
</g>
<!-- gitlab.aescorp.ru/dsp_dev/claim/nikitin/chatgpt_connect&#45;&gt;gitlab.aescorp.ru/dsp_dev/claim/nikitin/contextmain -->
<g id="edge6" class="edge">
<title>gitlab.aescorp.ru/dsp_dev/claim/nikitin/chatgpt_connect:e&#45;&gt;gitlab.aescorp.ru/dsp_dev/claim/nikitin/contextmain</title>
<path fill="none" stroke="#899107" stroke-width="2" stroke-opacity="0.698039" d="M343,-474.87C403.52,-474.87 410.63,-440.12 468,-420.87 524.58,-401.88 590.83,-386.28 638.19,-376.24"/>
<polygon fill="#899107" fill-opacity="0.698039" stroke="#899107" stroke-width="2" stroke-opacity="0.698039" points="638.93,-379.66 648,-374.18 637.49,-372.81 638.93,-379.66"/>
</g>
<!-- gitlab.aescorp.ru/dsp_dev/claim/nikitin/chatgpt_connect&#45;&gt;gitlab.aescorp.ru/dsp_dev/claim/nikitin/logger -->
<g id="edge7" class="edge">
<title>gitlab.aescorp.ru/dsp_dev/claim/nikitin/chatgpt_connect:e&#45;&gt;gitlab.aescorp.ru/dsp_dev/claim/nikitin/logger</title>
<path fill="none" stroke="#91070d" stroke-width="2" stroke-opacity="0.698039" d="M343,-474.87C416.71,-474.87 398.98,-558 468,-583.87 530,-607.1 607.76,-594.98 655.92,-583.16"/>
<polygon fill="#91070d" fill-opacity="0.698039" stroke="#91070d" stroke-width="2" stroke-opacity="0.698039" points="656.9,-586.52 665.73,-580.66 655.17,-579.74 656.9,-586.52"/>
</g>
<!-- gitlab.aescorp.ru/dsp_dev/claim/nikitin/chatgpt_connect&#45;&gt;gitlab.aescorp.ru/dsp_dev/claim/nikitin/stopapp -->
<g id="edge8" class="edge">
<title>gitlab.aescorp.ru/dsp_dev/claim/nikitin/chatgpt_connect:e&#45;&gt;gitlab.aescorp.ru/dsp_dev/claim/nikitin/stopapp</title>
<path fill="none" stroke="#912907" stroke-width="2" stroke-opacity="0.698039" d="M343,-474.87C382.15,-474.87 425.94,-466.91 457.8,-459.64"/>
<polygon fill="#912907" fill-opacity="0.698039" stroke="#912907" stroke-width="2" stroke-opacity="0.698039" points="458.77,-463 467.7,-457.31 457.17,-456.19 458.77,-463"/>
</g>
<!-- gitlab.aescorp.ru/dsp_dev/claim/nikitin/config -->
<g id="node4" class="node">
<title>gitlab.aescorp.ru/dsp_dev/claim/nikitin/config</title>
<g id="a_node4"><a xlink:href="https://pkg.go.dev/gitlab.aescorp.ru/dsp_dev/claim/nikitin/config" xlink:title="config" target="_graphviz">
<polygon fill="none" stroke="#074491" stroke-width="2" stroke-opacity="0.698039" points="540,-1013.87 468,-1013.87 468,-977.87 540,-977.87 540,-1013.87"/>
<text text-anchor="middle" x="504" y="-993.37" font-family="Times,serif" font-size="10.00">config</text>
</a>
</g>
</g>
<!-- gitlab.aescorp.ru/dsp_dev/claim/nikitin/config&#45;&gt;gitlab.aescorp.ru/dsp_dev/claim/nikitin/logger -->
<g id="edge9" class="edge">
<title>gitlab.aescorp.ru/dsp_dev/claim/nikitin/config:e&#45;&gt;gitlab.aescorp.ru/dsp_dev/claim/nikitin/logger</title>
<path fill="none" stroke="#91070d" stroke-width="2" stroke-opacity="0.698039" d="M540,-995.87C582.72,-995.87 668.08,-692.18 693.62,-597.62"/>
<polygon fill="#91070d" fill-opacity="0.698039" stroke="#91070d" stroke-width="2" stroke-opacity="0.698039" points="697.01,-598.47 696.23,-587.9 690.25,-596.65 697.01,-598.47"/>
</g>
<!-- gitlab.aescorp.ru/dsp_dev/claim/nikitin/config&#45;&gt;gitlab.aescorp.ru/dsp_dev/claim/nikitin/micro -->
<g id="edge10" class="edge">
<title>gitlab.aescorp.ru/dsp_dev/claim/nikitin/config:e&#45;&gt;gitlab.aescorp.ru/dsp_dev/claim/nikitin/micro</title>
<path fill="none" stroke="#629107" stroke-width="2" stroke-opacity="0.698039" d="M540,-995.87C759.27,-995.87 864.98,-666.5 891.91,-567"/>
<polygon fill="#629107" fill-opacity="0.698039" stroke="#629107" stroke-width="2" stroke-opacity="0.698039" points="895.36,-567.63 894.54,-557.06 888.6,-565.83 895.36,-567.63"/>
</g>
<!-- gitlab.aescorp.ru/dsp_dev/claim/nikitin/constants -->
<g id="node5" class="node">
<title>gitlab.aescorp.ru/dsp_dev/claim/nikitin/constants</title>
<g id="a_node5"><a xlink:href="https://pkg.go.dev/gitlab.aescorp.ru/dsp_dev/claim/nikitin/constants" xlink:title="constants" target="_graphviz">
<polygon fill="none" stroke="#079125" stroke-width="2" stroke-opacity="0.698039" points="90,-842.87 18,-842.87 18,-806.87 90,-806.87 90,-842.87"/>
<text text-anchor="middle" x="54" y="-822.37" font-family="Times,serif" font-size="10.00">constants</text>
</a>
</g>
</g>
<!-- gitlab.aescorp.ru/dsp_dev/claim/nikitin/fiber_connect -->
<g id="node7" class="node">
<title>gitlab.aescorp.ru/dsp_dev/claim/nikitin/fiber_connect</title>
<g id="a_node7"><a xlink:href="https://pkg.go.dev/gitlab.aescorp.ru/dsp_dev/claim/nikitin/fiber_connect" xlink:title="fiber_connect" target="_graphviz">
<polygon fill="none" stroke="#5e0791" stroke-width="2" stroke-opacity="0.698039" points="342,-610.87 234,-610.87 234,-574.87 342,-574.87 342,-610.87"/>
<text text-anchor="middle" x="288" y="-590.37" font-family="Times,serif" font-size="10.00">fiber_connect</text>
</a>
</g>
</g>
<!-- gitlab.aescorp.ru/dsp_dev/claim/nikitin/fiber_connect&#45;&gt;gitlab.aescorp.ru/dsp_dev/claim/nikitin/contextmain -->
<g id="edge11" class="edge">
<title>gitlab.aescorp.ru/dsp_dev/claim/nikitin/fiber_connect:e&#45;&gt;gitlab.aescorp.ru/dsp_dev/claim/nikitin/contextmain</title>
<path fill="none" stroke="#899107" stroke-width="2" stroke-opacity="0.698039" d="M343,-592.87C492.04,-592.87 628.77,-450.29 679.83,-390.14"/>
<polygon fill="#899107" fill-opacity="0.698039" stroke="#899107" stroke-width="2" stroke-opacity="0.698039" points="682.72,-392.13 686.45,-382.22 677.35,-387.64 682.72,-392.13"/>
</g>
<!-- gitlab.aescorp.ru/dsp_dev/claim/nikitin/fiber_connect&#45;&gt;gitlab.aescorp.ru/dsp_dev/claim/nikitin/logger -->
<g id="edge12" class="edge">
<title>gitlab.aescorp.ru/dsp_dev/claim/nikitin/fiber_connect:e&#45;&gt;gitlab.aescorp.ru/dsp_dev/claim/nikitin/logger</title>
<path fill="none" stroke="#91070d" stroke-width="2" stroke-opacity="0.698039" d="M343,-592.87C400.03,-592.87 411.34,-615.38 468,-621.87 499.79,-625.51 508.39,-626.84 540,-621.87 580.49,-615.49 624.69,-600.61 656.51,-588.4"/>
<polygon fill="#91070d" fill-opacity="0.698039" stroke="#91070d" stroke-width="2" stroke-opacity="0.698039" points="657.93,-591.6 665.97,-584.7 655.38,-585.08 657.93,-591.6"/>
</g>
<!-- gitlab.aescorp.ru/dsp_dev/claim/nikitin/fiber_connect&#45;&gt;gitlab.aescorp.ru/dsp_dev/claim/nikitin/stopapp -->
<g id="edge13" class="edge">
<title>gitlab.aescorp.ru/dsp_dev/claim/nikitin/fiber_connect:e&#45;&gt;gitlab.aescorp.ru/dsp_dev/claim/nikitin/stopapp</title>
<path fill="none" stroke="#912907" stroke-width="2" stroke-opacity="0.698039" d="M343,-592.87C344.1,-592.87 430.41,-514.18 475.79,-472.73"/>
<polygon fill="#912907" fill-opacity="0.698039" stroke="#912907" stroke-width="2" stroke-opacity="0.698039" points="478.21,-475.27 483.23,-465.94 473.49,-470.1 478.21,-475.27"/>
</g>
<!-- gitlab.aescorp.ru/dsp_dev/claim/nikitin/kafka_connect -->
<g id="node8" class="node">
<title>gitlab.aescorp.ru/dsp_dev/claim/nikitin/kafka_connect</title>
<g id="a_node8"><a xlink:href="https://pkg.go.dev/gitlab.aescorp.ru/dsp_dev/claim/nikitin/kafka_connect" xlink:title="kafka_connect" target="_graphviz">
<polygon fill="none" stroke="#915807" stroke-width="2" stroke-opacity="0.698039" points="342,-438.87 234,-438.87 234,-402.87 342,-402.87 342,-438.87"/>
<text text-anchor="middle" x="288" y="-418.37" font-family="Times,serif" font-size="10.00">kafka_connect</text>
</a>
</g>
</g>
<!-- gitlab.aescorp.ru/dsp_dev/claim/nikitin/kafka_connect&#45;&gt;gitlab.aescorp.ru/dsp_dev/claim/nikitin/contextmain -->
<g id="edge14" class="edge">
<title>gitlab.aescorp.ru/dsp_dev/claim/nikitin/kafka_connect:e&#45;&gt;gitlab.aescorp.ru/dsp_dev/claim/nikitin/contextmain</title>
<path fill="none" stroke="#899107" stroke-width="2" stroke-opacity="0.698039" d="M343,-420.87C400.46,-420.87 411.47,-398.17 468,-387.87 525.02,-377.47 590.78,-371.21 637.87,-367.7"/>
<polygon fill="#899107" fill-opacity="0.698039" stroke="#899107" stroke-width="2" stroke-opacity="0.698039" points="638.2,-371.19 647.92,-366.97 637.7,-364.21 638.2,-371.19"/>
</g>
<!-- gitlab.aescorp.ru/dsp_dev/claim/nikitin/kafka_connect&#45;&gt;gitlab.aescorp.ru/dsp_dev/claim/nikitin/logger -->
<g id="edge15" class="edge">
<title>gitlab.aescorp.ru/dsp_dev/claim/nikitin/kafka_connect:e&#45;&gt;gitlab.aescorp.ru/dsp_dev/claim/nikitin/logger</title>
<path fill="none" stroke="#91070d" stroke-width="2" stroke-opacity="0.698039" d="M343,-420.87C421.57,-420.87 397.05,-512.12 468,-545.87 528.21,-574.51 606.88,-576.31 655.66,-573.9"/>
<polygon fill="#91070d" fill-opacity="0.698039" stroke="#91070d" stroke-width="2" stroke-opacity="0.698039" points="656.11,-577.38 665.89,-573.31 655.71,-570.39 656.11,-577.38"/>
</g>
<!-- gitlab.aescorp.ru/dsp_dev/claim/nikitin/kafka_connect&#45;&gt;gitlab.aescorp.ru/dsp_dev/claim/nikitin/stopapp -->
<g id="edge16" class="edge">
<title>gitlab.aescorp.ru/dsp_dev/claim/nikitin/kafka_connect:e&#45;&gt;gitlab.aescorp.ru/dsp_dev/claim/nikitin/stopapp</title>
<path fill="none" stroke="#912907" stroke-width="2" stroke-opacity="0.698039" d="M343,-420.87C382.15,-420.87 425.94,-428.82 457.8,-436.1"/>
<polygon fill="#912907" fill-opacity="0.698039" stroke="#912907" stroke-width="2" stroke-opacity="0.698039" points="457.17,-439.54 467.7,-438.42 458.77,-432.73 457.17,-439.54"/>
</g>
<!-- gitlab.aescorp.ru/dsp_dev/claim/nikitin/liveness -->
<g id="node9" class="node">
<title>gitlab.aescorp.ru/dsp_dev/claim/nikitin/liveness</title>
<g id="a_node9"><a xlink:href="https://pkg.go.dev/gitlab.aescorp.ru/dsp_dev/claim/nikitin/liveness" xlink:title="liveness" target="_graphviz">
<polygon fill="none" stroke="#410791" stroke-width="2" stroke-opacity="0.698039" points="90,-788.87 18,-788.87 18,-752.87 90,-752.87 90,-788.87"/>
<text text-anchor="middle" x="54" y="-768.37" font-family="Times,serif" font-size="10.00">liveness</text>
</a>
</g>
</g>
<!-- gitlab.aescorp.ru/dsp_dev/claim/nikitin/liveness&#45;&gt;gitlab.aescorp.ru/dsp_dev/claim/nikitin/fiber_connect -->
<g id="edge17" class="edge">
<title>gitlab.aescorp.ru/dsp_dev/claim/nikitin/liveness:e&#45;&gt;gitlab.aescorp.ru/dsp_dev/claim/nikitin/fiber_connect</title>
<path fill="none" stroke="#5e0791" stroke-width="2" stroke-opacity="0.698039" d="M91,-770.87C166.19,-770.87 160.3,-707.37 216,-656.87 230.15,-644.04 245.93,-629.8 259.01,-618.03"/>
<polygon fill="#5e0791" fill-opacity="0.698039" stroke="#5e0791" stroke-width="2" stroke-opacity="0.698039" points="261.68,-620.33 266.77,-611.04 257,-615.13 261.68,-620.33"/>
</g>
<!-- gitlab.aescorp.ru/dsp_dev/claim/nikitin/liveness&#45;&gt;gitlab.aescorp.ru/dsp_dev/claim/nikitin/logger -->
<g id="edge18" class="edge">
<title>gitlab.aescorp.ru/dsp_dev/claim/nikitin/liveness:e&#45;&gt;gitlab.aescorp.ru/dsp_dev/claim/nikitin/logger</title>
<path fill="none" stroke="#91070d" stroke-width="2" stroke-opacity="0.698039" d="M91,-770.87C179.5,-770.87 136.16,-887.69 216,-925.87 345.91,-987.99 419,-1003.94 540,-925.87 656.32,-850.81 689.5,-669.18 698.17,-598.59"/>
<polygon fill="#91070d" fill-opacity="0.698039" stroke="#91070d" stroke-width="2" stroke-opacity="0.698039" points="701.7,-598.59 699.36,-588.25 694.74,-597.79 701.7,-598.59"/>
</g>
<!-- gitlab.aescorp.ru/dsp_dev/claim/nikitin/logger&#45;&gt;gitlab.aescorp.ru/dsp_dev/claim/nikitin/micro -->
<g id="edge19" class="edge">
<title>gitlab.aescorp.ru/dsp_dev/claim/nikitin/logger:e&#45;&gt;gitlab.aescorp.ru/dsp_dev/claim/nikitin/micro</title>
<path fill="none" stroke="#629107" stroke-width="2" stroke-opacity="0.698039" d="M739,-569.87C778.32,-569.87 822.1,-560.73 853.91,-552.38"/>
<polygon fill="#629107" fill-opacity="0.698039" stroke="#629107" stroke-width="2" stroke-opacity="0.698039" points="855.05,-555.7 863.79,-549.71 853.23,-548.94 855.05,-555.7"/>
</g>
<!-- gitlab.aescorp.ru/dsp_dev/claim/nikitin/mssql_connect -->
<g id="node12" class="node">
<title>gitlab.aescorp.ru/dsp_dev/claim/nikitin/mssql_connect</title>
<g id="a_node12"><a xlink:href="https://pkg.go.dev/gitlab.aescorp.ru/dsp_dev/claim/nikitin/mssql_connect" xlink:title="mssql_connect" target="_graphviz">
<polygon fill="none" stroke="#910731" stroke-width="2" stroke-opacity="0.698039" points="342,-785.87 234,-785.87 234,-749.87 342,-749.87 342,-785.87"/>
<text text-anchor="middle" x="288" y="-765.37" font-family="Times,serif" font-size="10.00">mssql_connect</text>
</a>
</g>
</g>
<!-- gitlab.aescorp.ru/dsp_dev/claim/nikitin/mssql_connect&#45;&gt;gitlab.aescorp.ru/dsp_dev/claim/nikitin/contextmain -->
<g id="edge20" class="edge">
<title>gitlab.aescorp.ru/dsp_dev/claim/nikitin/mssql_connect:e&#45;&gt;gitlab.aescorp.ru/dsp_dev/claim/nikitin/contextmain</title>
<path fill="none" stroke="#899107" stroke-width="2" stroke-opacity="0.698039" d="M343,-767.87C544.45,-767.87 660.01,-483 691.88,-391.68"/>
<polygon fill="#899107" fill-opacity="0.698039" stroke="#899107" stroke-width="2" stroke-opacity="0.698039" points="695.26,-392.61 695.19,-382.01 688.64,-390.34 695.26,-392.61"/>
</g>
<!-- gitlab.aescorp.ru/dsp_dev/claim/nikitin/mssql_connect&#45;&gt;gitlab.aescorp.ru/dsp_dev/claim/nikitin/logger -->
<g id="edge21" class="edge">
<title>gitlab.aescorp.ru/dsp_dev/claim/nikitin/mssql_connect:e&#45;&gt;gitlab.aescorp.ru/dsp_dev/claim/nikitin/logger</title>
<path fill="none" stroke="#91070d" stroke-width="2" stroke-opacity="0.698039" d="M343,-767.87C433.55,-767.87 460.42,-759.07 540,-715.87 597.47,-684.67 650.92,-628.8 679.45,-595.96"/>
<polygon fill="#91070d" fill-opacity="0.698039" stroke="#91070d" stroke-width="2" stroke-opacity="0.698039" points="682.3,-598.01 686.15,-588.13 676.99,-593.45 682.3,-598.01"/>
</g>
<!-- gitlab.aescorp.ru/dsp_dev/claim/nikitin/mssql_connect&#45;&gt;gitlab.aescorp.ru/dsp_dev/claim/nikitin/micro -->
<g id="edge22" class="edge">
<title>gitlab.aescorp.ru/dsp_dev/claim/nikitin/mssql_connect:e&#45;&gt;gitlab.aescorp.ru/dsp_dev/claim/nikitin/micro</title>
<path fill="none" stroke="#629107" stroke-width="2" stroke-opacity="0.698039" d="M343,-767.87C476.45,-767.87 355.7,-968.77 468,-1040.87 541.61,-1088.12 694.91,-1039.44 756,-980.87 877.2,-864.64 895.85,-645.1 898.58,-567.18"/>
<polygon fill="#629107" fill-opacity="0.698039" stroke="#629107" stroke-width="2" stroke-opacity="0.698039" points="902.08,-567.25 898.87,-557.15 895.08,-567.04 902.08,-567.25"/>
</g>
<!-- gitlab.aescorp.ru/dsp_dev/claim/nikitin/mssql_connect&#45;&gt;gitlab.aescorp.ru/dsp_dev/claim/nikitin/stopapp -->
<g id="edge23" class="edge">
<title>gitlab.aescorp.ru/dsp_dev/claim/nikitin/mssql_connect:e&#45;&gt;gitlab.aescorp.ru/dsp_dev/claim/nikitin/stopapp</title>
<path fill="none" stroke="#912907" stroke-width="2" stroke-opacity="0.698039" d="M343,-767.87C472.92,-767.87 497.35,-554.25 501.94,-476.08"/>
<polygon fill="#912907" fill-opacity="0.698039" stroke="#912907" stroke-width="2" stroke-opacity="0.698039" points="505.44,-476.16 502.46,-465.99 498.45,-475.79 505.44,-476.16"/>
</g>
<!-- gitlab.aescorp.ru/dsp_dev/claim/nikitin/mssql_gorm -->
<g id="node13" class="node">
<title>gitlab.aescorp.ru/dsp_dev/claim/nikitin/mssql_gorm</title>
<g id="a_node13"><a xlink:href="https://pkg.go.dev/gitlab.aescorp.ru/dsp_dev/claim/nikitin/mssql_gorm" xlink:title="mssql_gorm" target="_graphviz">
<polygon fill="none" stroke="#900791" stroke-width="2" stroke-opacity="0.698039" points="342,-205.87 234,-205.87 234,-169.87 342,-169.87 342,-205.87"/>
<text text-anchor="middle" x="288" y="-185.37" font-family="Times,serif" font-size="10.00">mssql_gorm</text>
</a>
</g>
</g>
<!-- gitlab.aescorp.ru/dsp_dev/claim/nikitin/mssql_gorm&#45;&gt;gitlab.aescorp.ru/dsp_dev/claim/nikitin/contextmain -->
<g id="edge24" class="edge">
<title>gitlab.aescorp.ru/dsp_dev/claim/nikitin/mssql_gorm:e&#45;&gt;gitlab.aescorp.ru/dsp_dev/claim/nikitin/contextmain</title>
<path fill="none" stroke="#899107" stroke-width="2" stroke-opacity="0.698039" d="M343,-187.87C430.96,-187.87 460.21,-169.84 540,-206.87 603.28,-236.23 656.65,-301.09 683.13,-337.59"/>
<polygon fill="#899107" fill-opacity="0.698039" stroke="#899107" stroke-width="2" stroke-opacity="0.698039" points="680.31,-339.67 688.97,-345.78 686.02,-335.61 680.31,-339.67"/>
</g>
<!-- gitlab.aescorp.ru/dsp_dev/claim/nikitin/mssql_gorm&#45;&gt;gitlab.aescorp.ru/dsp_dev/claim/nikitin/logger -->
<g id="edge25" class="edge">
<title>gitlab.aescorp.ru/dsp_dev/claim/nikitin/mssql_gorm:e&#45;&gt;gitlab.aescorp.ru/dsp_dev/claim/nikitin/logger</title>
<path fill="none" stroke="#91070d" stroke-width="2" stroke-opacity="0.698039" d="M343,-187.87C432.09,-187.87 469.62,-170.25 540,-224.87 594.24,-266.95 666.46,-467.9 691.77,-542.18"/>
<polygon fill="#91070d" fill-opacity="0.698039" stroke="#91070d" stroke-width="2" stroke-opacity="0.698039" points="688.5,-543.44 695.02,-551.79 695.13,-541.2 688.5,-543.44"/>
</g>
<!-- gitlab.aescorp.ru/dsp_dev/claim/nikitin/mssql_gorm&#45;&gt;gitlab.aescorp.ru/dsp_dev/claim/nikitin/micro -->
<g id="edge26" class="edge">
<title>gitlab.aescorp.ru/dsp_dev/claim/nikitin/mssql_gorm:e&#45;&gt;gitlab.aescorp.ru/dsp_dev/claim/nikitin/micro</title>
<path fill="none" stroke="#629107" stroke-width="2" stroke-opacity="0.698039" d="M343,-187.87C528.36,-187.87 610.45,-131.1 756,-245.87 843.66,-314.99 881.13,-451.51 893.71,-510.56"/>
<polygon fill="#629107" fill-opacity="0.698039" stroke="#629107" stroke-width="2" stroke-opacity="0.698039" points="890.34,-511.55 895.78,-520.64 897.2,-510.15 890.34,-511.55"/>
</g>
<!-- gitlab.aescorp.ru/dsp_dev/claim/nikitin/mssql_gorm&#45;&gt;gitlab.aescorp.ru/dsp_dev/claim/nikitin/stopapp -->
<g id="edge27" class="edge">
<title>gitlab.aescorp.ru/dsp_dev/claim/nikitin/mssql_gorm:e&#45;&gt;gitlab.aescorp.ru/dsp_dev/claim/nikitin/stopapp</title>
<path fill="none" stroke="#912907" stroke-width="2" stroke-opacity="0.698039" d="M343,-187.87C397.07,-187.87 466.58,-353.01 492.58,-420.07"/>
<polygon fill="#912907" fill-opacity="0.698039" stroke="#912907" stroke-width="2" stroke-opacity="0.698039" points="489.38,-421.5 496.23,-429.58 495.92,-418.99 489.38,-421.5"/>
</g>
<!-- gitlab.aescorp.ru/dsp_dev/claim/nikitin/mssql_stek -->
<g id="node14" class="node">
<title>gitlab.aescorp.ru/dsp_dev/claim/nikitin/mssql_stek</title>
<g id="a_node14"><a xlink:href="https://pkg.go.dev/gitlab.aescorp.ru/dsp_dev/claim/nikitin/mssql_stek" xlink:title="mssql_stek" target="_graphviz">
<polygon fill="none" stroke="#7d9107" stroke-width="2" stroke-opacity="0.698039" points="108,-205.87 0,-205.87 0,-169.87 108,-169.87 108,-205.87"/>
<text text-anchor="middle" x="54" y="-185.37" font-family="Times,serif" font-size="10.00">mssql_stek</text>
</a>
</g>
</g>
<!-- gitlab.aescorp.ru/dsp_dev/claim/nikitin/mssql_stek&#45;&gt;gitlab.aescorp.ru/dsp_dev/claim/nikitin/contextmain -->
<g id="edge28" class="edge">
<title>gitlab.aescorp.ru/dsp_dev/claim/nikitin/mssql_stek:e&#45;&gt;gitlab.aescorp.ru/dsp_dev/claim/nikitin/contextmain</title>
<path fill="none" stroke="#899107" stroke-width="2" stroke-opacity="0.698039" d="M108,-187.87C197.89,-187.87 137.28,-60.26 216,-16.87 272.05,14.03 296.9,-6.14 360,-16.87 443.56,-31.07 474.95,-25.53 540,-79.87 625.18,-151.01 674.25,-279.48 692.61,-335.95"/>
<polygon fill="#899107" fill-opacity="0.698039" stroke="#899107" stroke-width="2" stroke-opacity="0.698039" points="689.32,-337.16 695.68,-345.63 695.99,-335.04 689.32,-337.16"/>
</g>
<!-- gitlab.aescorp.ru/dsp_dev/claim/nikitin/mssql_stek&#45;&gt;gitlab.aescorp.ru/dsp_dev/claim/nikitin/logger -->
<g id="edge29" class="edge">
<title>gitlab.aescorp.ru/dsp_dev/claim/nikitin/mssql_stek:e&#45;&gt;gitlab.aescorp.ru/dsp_dev/claim/nikitin/logger</title>
<path fill="none" stroke="#91070d" stroke-width="2" stroke-opacity="0.698039" d="M108,-187.87C263.2,-187.87 98.08,-776.96 216,-877.87 232.74,-892.19 524.74,-882.33 540,-872.87 641.22,-810.1 682.54,-660.56 695.78,-598.07"/>
<polygon fill="#91070d" fill-opacity="0.698039" stroke="#91070d" stroke-width="2" stroke-opacity="0.698039" points="699.24,-598.63 697.8,-588.13 692.38,-597.23 699.24,-598.63"/>
</g>
<!-- gitlab.aescorp.ru/dsp_dev/claim/nikitin/mssql_stek&#45;&gt;gitlab.aescorp.ru/dsp_dev/claim/nikitin/mssql_gorm -->
<g id="edge30" class="edge">
<title>gitlab.aescorp.ru/dsp_dev/claim/nikitin/mssql_stek:e&#45;&gt;gitlab.aescorp.ru/dsp_dev/claim/nikitin/mssql_gorm</title>
<path fill="none" stroke="#900791" stroke-width="2" stroke-opacity="0.698039" d="M108,-187.87C146.3,-187.87 189.21,-187.87 223.42,-187.87"/>
<polygon fill="#900791" fill-opacity="0.698039" stroke="#900791" stroke-width="2" stroke-opacity="0.698039" points="223.74,-191.37 233.74,-187.87 223.74,-184.37 223.74,-191.37"/>
</g>
<!-- gitlab.aescorp.ru/dsp_dev/claim/nikitin/nats_connect -->
<g id="node15" class="node">
<title>gitlab.aescorp.ru/dsp_dev/claim/nikitin/nats_connect</title>
<g id="a_node15"><a xlink:href="https://pkg.go.dev/gitlab.aescorp.ru/dsp_dev/claim/nikitin/nats_connect" xlink:title="nats_connect" target="_graphviz">
<polygon fill="none" stroke="#911207" stroke-width="2" stroke-opacity="0.698039" points="342,-350.87 234,-350.87 234,-314.87 342,-314.87 342,-350.87"/>
<text text-anchor="middle" x="288" y="-330.37" font-family="Times,serif" font-size="10.00">nats_connect</text>
</a>
</g>
</g>
<!-- gitlab.aescorp.ru/dsp_dev/claim/nikitin/nats_connect&#45;&gt;gitlab.aescorp.ru/dsp_dev/claim/nikitin/contextmain -->
<g id="edge31" class="edge">
<title>gitlab.aescorp.ru/dsp_dev/claim/nikitin/nats_connect:e&#45;&gt;gitlab.aescorp.ru/dsp_dev/claim/nikitin/contextmain</title>
<path fill="none" stroke="#899107" stroke-width="2" stroke-opacity="0.698039" d="M343,-332.87C446.46,-332.87 566.12,-345.88 637.57,-355.04"/>
<polygon fill="#899107" fill-opacity="0.698039" stroke="#899107" stroke-width="2" stroke-opacity="0.698039" points="637.38,-358.55 647.75,-356.36 638.28,-351.6 637.38,-358.55"/>
</g>
<!-- gitlab.aescorp.ru/dsp_dev/claim/nikitin/nats_connect&#45;&gt;gitlab.aescorp.ru/dsp_dev/claim/nikitin/logger -->
<g id="edge32" class="edge">
<title>gitlab.aescorp.ru/dsp_dev/claim/nikitin/nats_connect:e&#45;&gt;gitlab.aescorp.ru/dsp_dev/claim/nikitin/logger</title>
<path fill="none" stroke="#91070d" stroke-width="2" stroke-opacity="0.698039" d="M343,-332.87C427.08,-332.87 399.47,-426.15 468,-474.87 526.79,-516.67 606.68,-544.07 655.99,-558.25"/>
<polygon fill="#91070d" fill-opacity="0.698039" stroke="#91070d" stroke-width="2" stroke-opacity="0.698039" points="655.15,-561.65 665.73,-561 657.05,-554.92 655.15,-561.65"/>
</g>
<!-- gitlab.aescorp.ru/dsp_dev/claim/nikitin/nats_connect&#45;&gt;gitlab.aescorp.ru/dsp_dev/claim/nikitin/ping -->
<g id="edge33" class="edge">
<title>gitlab.aescorp.ru/dsp_dev/claim/nikitin/nats_connect:e&#45;&gt;gitlab.aescorp.ru/dsp_dev/claim/nikitin/ping</title>
<path fill="none" stroke="#07915b" stroke-width="2" stroke-opacity="0.698039" d="M343,-332.87C384.24,-332.87 428.56,-316.81 460.07,-302.37"/>
<polygon fill="#07915b" fill-opacity="0.698039" stroke="#07915b" stroke-width="2" stroke-opacity="0.698039" points="461.87,-305.39 469.42,-297.96 458.89,-299.06 461.87,-305.39"/>
</g>
<!-- gitlab.aescorp.ru/dsp_dev/claim/nikitin/nats_connect&#45;&gt;gitlab.aescorp.ru/dsp_dev/claim/nikitin/stopapp -->
<g id="edge34" class="edge">
<title>gitlab.aescorp.ru/dsp_dev/claim/nikitin/nats_connect:e&#45;&gt;gitlab.aescorp.ru/dsp_dev/claim/nikitin/stopapp</title>
<path fill="none" stroke="#912907" stroke-width="2" stroke-opacity="0.698039" d="M343,-332.87C403.39,-332.87 456.58,-387.56 483.78,-421.51"/>
<polygon fill="#912907" fill-opacity="0.698039" stroke="#912907" stroke-width="2" stroke-opacity="0.698039" points="481.21,-423.91 490.12,-429.64 486.74,-419.61 481.21,-423.91"/>
</g>
<!-- gitlab.aescorp.ru/dsp_dev/claim/nikitin/ping&#45;&gt;gitlab.aescorp.ru/dsp_dev/claim/nikitin/logger -->
<g id="edge35" class="edge">
<title>gitlab.aescorp.ru/dsp_dev/claim/nikitin/ping:e&#45;&gt;gitlab.aescorp.ru/dsp_dev/claim/nikitin/logger</title>
<path fill="none" stroke="#91070d" stroke-width="2" stroke-opacity="0.698039" d="M540,-279.87C599.55,-279.87 667.97,-469.16 692.05,-541.88"/>
<polygon fill="#91070d" fill-opacity="0.698039" stroke="#91070d" stroke-width="2" stroke-opacity="0.698039" points="688.84,-543.31 695.28,-551.73 695.49,-541.13 688.84,-543.31"/>
</g>
<!-- gitlab.aescorp.ru/dsp_dev/claim/nikitin/postgres_connect -->
<g id="node17" class="node">
<title>gitlab.aescorp.ru/dsp_dev/claim/nikitin/postgres_connect</title>
<g id="a_node17"><a xlink:href="https://pkg.go.dev/gitlab.aescorp.ru/dsp_dev/claim/nikitin/postgres_connect" xlink:title="postgres_connect" target="_graphviz">
<polygon fill="none" stroke="#1f0791" stroke-width="2" stroke-opacity="0.698039" points="342,-259.87 234,-259.87 234,-223.87 342,-223.87 342,-259.87"/>
<text text-anchor="middle" x="288" y="-239.37" font-family="Times,serif" font-size="10.00">postgres_connect</text>
</a>
</g>
</g>
<!-- gitlab.aescorp.ru/dsp_dev/claim/nikitin/postgres_connect&#45;&gt;gitlab.aescorp.ru/dsp_dev/claim/nikitin/contextmain -->
<g id="edge36" class="edge">
<title>gitlab.aescorp.ru/dsp_dev/claim/nikitin/postgres_connect:e&#45;&gt;gitlab.aescorp.ru/dsp_dev/claim/nikitin/contextmain</title>
<path fill="none" stroke="#899107" stroke-width="2" stroke-opacity="0.698039" d="M343,-241.87C431.1,-241.87 457.7,-188.43 540,-219.87 601.68,-243.43 654.68,-302.7 681.76,-337.41"/>
<polygon fill="#899107" fill-opacity="0.698039" stroke="#899107" stroke-width="2" stroke-opacity="0.698039" points="679.22,-339.86 688.07,-345.67 684.78,-335.6 679.22,-339.86"/>
</g>
<!-- gitlab.aescorp.ru/dsp_dev/claim/nikitin/postgres_connect&#45;&gt;gitlab.aescorp.ru/dsp_dev/claim/nikitin/logger -->
<g id="edge37" class="edge">
<title>gitlab.aescorp.ru/dsp_dev/claim/nikitin/postgres_connect:e&#45;&gt;gitlab.aescorp.ru/dsp_dev/claim/nikitin/logger</title>
<path fill="none" stroke="#91070d" stroke-width="2" stroke-opacity="0.698039" d="M343,-241.87C430.69,-241.87 466.57,-204.93 540,-252.87 593.21,-287.6 664.96,-471.48 691.02,-542.16"/>
<polygon fill="#91070d" fill-opacity="0.698039" stroke="#91070d" stroke-width="2" stroke-opacity="0.698039" points="687.8,-543.55 694.52,-551.74 694.37,-541.14 687.8,-543.55"/>
</g>
<!-- gitlab.aescorp.ru/dsp_dev/claim/nikitin/postgres_connect&#45;&gt;gitlab.aescorp.ru/dsp_dev/claim/nikitin/micro -->
<g id="edge38" class="edge">
<title>gitlab.aescorp.ru/dsp_dev/claim/nikitin/postgres_connect:e&#45;&gt;gitlab.aescorp.ru/dsp_dev/claim/nikitin/micro</title>
<path fill="none" stroke="#629107" stroke-width="2" stroke-opacity="0.698039" d="M343,-241.87C431.93,-241.87 454.32,-183.07 540,-206.87 647.96,-236.85 673.89,-260.63 756,-336.87 813.55,-390.3 861.81,-470.39 884.72,-511.85"/>
<polygon fill="#629107" fill-opacity="0.698039" stroke="#629107" stroke-width="2" stroke-opacity="0.698039" points="881.74,-513.7 889.6,-520.8 887.88,-510.35 881.74,-513.7"/>
</g>
<!-- gitlab.aescorp.ru/dsp_dev/claim/nikitin/postgres_connect&#45;&gt;gitlab.aescorp.ru/dsp_dev/claim/nikitin/ping -->
<g id="edge39" class="edge">
<title>gitlab.aescorp.ru/dsp_dev/claim/nikitin/postgres_connect:e&#45;&gt;gitlab.aescorp.ru/dsp_dev/claim/nikitin/ping</title>
<path fill="none" stroke="#07915b" stroke-width="2" stroke-opacity="0.698039" d="M343,-241.87C382.67,-241.87 426.42,-253.06 458.13,-263.3"/>
<polygon fill="#07915b" fill-opacity="0.698039" stroke="#07915b" stroke-width="2" stroke-opacity="0.698039" points="457.39,-266.74 467.98,-266.58 459.59,-260.1 457.39,-266.74"/>
</g>
<!-- gitlab.aescorp.ru/dsp_dev/claim/nikitin/postgres_connect&#45;&gt;gitlab.aescorp.ru/dsp_dev/claim/nikitin/stopapp -->
<g id="edge40" class="edge">
<title>gitlab.aescorp.ru/dsp_dev/claim/nikitin/postgres_connect:e&#45;&gt;gitlab.aescorp.ru/dsp_dev/claim/nikitin/stopapp</title>
<path fill="none" stroke="#912907" stroke-width="2" stroke-opacity="0.698039" d="M343,-241.87C432.1,-241.87 478.75,-363.55 495.57,-419.87"/>
<polygon fill="#912907" fill-opacity="0.698039" stroke="#912907" stroke-width="2" stroke-opacity="0.698039" points="492.24,-420.94 498.37,-429.59 498.97,-419.01 492.24,-420.94"/>
</g>
<!-- gitlab.aescorp.ru/dsp_dev/claim/nikitin/postgres_func -->
<g id="node18" class="node">
<title>gitlab.aescorp.ru/dsp_dev/claim/nikitin/postgres_func</title>
<g id="a_node18"><a xlink:href="https://pkg.go.dev/gitlab.aescorp.ru/dsp_dev/claim/nikitin/postgres_func" xlink:title="postgres_func" target="_graphviz">
<polygon fill="none" stroke="#2e9107" stroke-width="2" stroke-opacity="0.698039" points="108,-896.87 0,-896.87 0,-860.87 108,-860.87 108,-896.87"/>
<text text-anchor="middle" x="54" y="-876.37" font-family="Times,serif" font-size="10.00">postgres_func</text>
</a>
</g>
</g>
<!-- gitlab.aescorp.ru/dsp_dev/claim/nikitin/postgres_gorm -->
<g id="node19" class="node">
<title>gitlab.aescorp.ru/dsp_dev/claim/nikitin/postgres_gorm</title>
<g id="a_node19"><a xlink:href="https://pkg.go.dev/gitlab.aescorp.ru/dsp_dev/claim/nikitin/postgres_gorm" xlink:title="postgres_gorm" target="_graphviz">
<polygon fill="none" stroke="#074691" stroke-width="2" stroke-opacity="0.698039" points="342,-151.87 234,-151.87 234,-115.87 342,-115.87 342,-151.87"/>
<text text-anchor="middle" x="288" y="-131.37" font-family="Times,serif" font-size="10.00">postgres_gorm</text>
</a>
</g>
</g>
<!-- gitlab.aescorp.ru/dsp_dev/claim/nikitin/postgres_gorm&#45;&gt;gitlab.aescorp.ru/dsp_dev/claim/nikitin/contextmain -->
<g id="edge41" class="edge">
<title>gitlab.aescorp.ru/dsp_dev/claim/nikitin/postgres_gorm:e&#45;&gt;gitlab.aescorp.ru/dsp_dev/claim/nikitin/contextmain</title>
<path fill="none" stroke="#899107" stroke-width="2" stroke-opacity="0.698039" d="M343,-133.87C433.12,-133.87 462.83,-135.32 540,-181.87 605.68,-221.49 659.29,-296.65 684.83,-336.87"/>
<polygon fill="#899107" fill-opacity="0.698039" stroke="#899107" stroke-width="2" stroke-opacity="0.698039" points="682.02,-338.97 690.28,-345.6 687.95,-335.26 682.02,-338.97"/>
</g>
<!-- gitlab.aescorp.ru/dsp_dev/claim/nikitin/postgres_gorm&#45;&gt;gitlab.aescorp.ru/dsp_dev/claim/nikitin/logger -->
<g id="edge42" class="edge">
<title>gitlab.aescorp.ru/dsp_dev/claim/nikitin/postgres_gorm:e&#45;&gt;gitlab.aescorp.ru/dsp_dev/claim/nikitin/logger</title>
<path fill="none" stroke="#91070d" stroke-width="2" stroke-opacity="0.698039" d="M343,-133.87C433.55,-133.87 471.68,-126.43 540,-185.87 597.29,-235.7 668.97,-462.32 692.84,-542.03"/>
<polygon fill="#91070d" fill-opacity="0.698039" stroke="#91070d" stroke-width="2" stroke-opacity="0.698039" points="689.56,-543.26 695.77,-551.85 696.27,-541.27 689.56,-543.26"/>
</g>
<!-- gitlab.aescorp.ru/dsp_dev/claim/nikitin/postgres_gorm&#45;&gt;gitlab.aescorp.ru/dsp_dev/claim/nikitin/micro -->
<g id="edge43" class="edge">
<title>gitlab.aescorp.ru/dsp_dev/claim/nikitin/postgres_gorm:e&#45;&gt;gitlab.aescorp.ru/dsp_dev/claim/nikitin/micro</title>
<path fill="none" stroke="#629107" stroke-width="2" stroke-opacity="0.698039" d="M343,-133.87C527.79,-133.87 609.2,-69.63 756,-181.87 863.99,-264.43 890.66,-441.49 897.05,-510.5"/>
<polygon fill="#629107" fill-opacity="0.698039" stroke="#629107" stroke-width="2" stroke-opacity="0.698039" points="893.58,-510.95 897.91,-520.62 900.55,-510.36 893.58,-510.95"/>
</g>
<!-- gitlab.aescorp.ru/dsp_dev/claim/nikitin/postgres_gorm&#45;&gt;gitlab.aescorp.ru/dsp_dev/claim/nikitin/ping -->
<g id="edge44" class="edge">
<title>gitlab.aescorp.ru/dsp_dev/claim/nikitin/postgres_gorm:e&#45;&gt;gitlab.aescorp.ru/dsp_dev/claim/nikitin/ping</title>
<path fill="none" stroke="#07915b" stroke-width="2" stroke-opacity="0.698039" d="M343,-133.87C412.75,-133.87 465.41,-210.5 489.14,-252.73"/>
<polygon fill="#07915b" fill-opacity="0.698039" stroke="#07915b" stroke-width="2" stroke-opacity="0.698039" points="486.16,-254.57 494.02,-261.67 492.3,-251.22 486.16,-254.57"/>
</g>
<!-- gitlab.aescorp.ru/dsp_dev/claim/nikitin/postgres_gorm&#45;&gt;gitlab.aescorp.ru/dsp_dev/claim/nikitin/stopapp -->
<g id="edge45" class="edge">
<title>gitlab.aescorp.ru/dsp_dev/claim/nikitin/postgres_gorm:e&#45;&gt;gitlab.aescorp.ru/dsp_dev/claim/nikitin/stopapp</title>
<path fill="none" stroke="#912907" stroke-width="2" stroke-opacity="0.698039" d="M343,-133.87C406.84,-133.87 472.92,-342.52 495.17,-419.65"/>
<polygon fill="#912907" fill-opacity="0.698039" stroke="#912907" stroke-width="2" stroke-opacity="0.698039" points="491.9,-420.97 498.01,-429.63 498.63,-419.05 491.9,-420.97"/>
</g>
<!-- gitlab.aescorp.ru/dsp_dev/claim/nikitin/postgres_pgx -->
<g id="node20" class="node">
<title>gitlab.aescorp.ru/dsp_dev/claim/nikitin/postgres_pgx</title>
<g id="a_node20"><a xlink:href="https://pkg.go.dev/gitlab.aescorp.ru/dsp_dev/claim/nikitin/postgres_pgx" xlink:title="postgres_pgx" target="_graphviz">
<polygon fill="none" stroke="#073d91" stroke-width="2" stroke-opacity="0.698039" points="342,-61.87 234,-61.87 234,-25.87 342,-25.87 342,-61.87"/>
<text text-anchor="middle" x="288" y="-41.37" font-family="Times,serif" font-size="10.00">postgres_pgx</text>
</a>
</g>
</g>
<!-- gitlab.aescorp.ru/dsp_dev/claim/nikitin/postgres_pgx&#45;&gt;gitlab.aescorp.ru/dsp_dev/claim/nikitin/contextmain -->
<g id="edge46" class="edge">
<title>gitlab.aescorp.ru/dsp_dev/claim/nikitin/postgres_pgx:e&#45;&gt;gitlab.aescorp.ru/dsp_dev/claim/nikitin/contextmain</title>
<path fill="none" stroke="#899107" stroke-width="2" stroke-opacity="0.698039" d="M343,-43.87C518.08,-43.87 646.84,-259.23 687.44,-336.6"/>
<polygon fill="#899107" fill-opacity="0.698039" stroke="#899107" stroke-width="2" stroke-opacity="0.698039" points="684.47,-338.47 692.17,-345.75 690.69,-335.25 684.47,-338.47"/>
</g>
<!-- gitlab.aescorp.ru/dsp_dev/claim/nikitin/postgres_pgx&#45;&gt;gitlab.aescorp.ru/dsp_dev/claim/nikitin/logger -->
<g id="edge47" class="edge">
<title>gitlab.aescorp.ru/dsp_dev/claim/nikitin/postgres_pgx:e&#45;&gt;gitlab.aescorp.ru/dsp_dev/claim/nikitin/logger</title>
<path fill="none" stroke="#91070d" stroke-width="2" stroke-opacity="0.698039" d="M343,-43.87C440.4,-43.87 474.48,-67.8 540,-139.87 568.75,-171.49 662.34,-451.97 691.94,-542.1"/>
<polygon fill="#91070d" fill-opacity="0.698039" stroke="#91070d" stroke-width="2" stroke-opacity="0.698039" points="688.63,-543.24 695.07,-551.65 695.28,-541.06 688.63,-543.24"/>
</g>
<!-- gitlab.aescorp.ru/dsp_dev/claim/nikitin/postgres_pgx&#45;&gt;gitlab.aescorp.ru/dsp_dev/claim/nikitin/micro -->
<g id="edge48" class="edge">
<title>gitlab.aescorp.ru/dsp_dev/claim/nikitin/postgres_pgx:e&#45;&gt;gitlab.aescorp.ru/dsp_dev/claim/nikitin/micro</title>
<path fill="none" stroke="#629107" stroke-width="2" stroke-opacity="0.698039" d="M343,-43.87C529.88,-43.87 614.81,-0.43 756,-122.87 875.61,-226.59 895.28,-435.12 898.43,-510.7"/>
<polygon fill="#629107" fill-opacity="0.698039" stroke="#629107" stroke-width="2" stroke-opacity="0.698039" points="894.94,-510.98 898.79,-520.85 901.93,-510.74 894.94,-510.98"/>
</g>
<!-- gitlab.aescorp.ru/dsp_dev/claim/nikitin/postgres_pgx&#45;&gt;gitlab.aescorp.ru/dsp_dev/claim/nikitin/ping -->
<g id="edge49" class="edge">
<title>gitlab.aescorp.ru/dsp_dev/claim/nikitin/postgres_pgx:e&#45;&gt;gitlab.aescorp.ru/dsp_dev/claim/nikitin/ping</title>
<path fill="none" stroke="#07915b" stroke-width="2" stroke-opacity="0.698039" d="M343,-43.87C442.44,-43.87 484.34,-189.18 497.77,-251.75"/>
<polygon fill="#07915b" fill-opacity="0.698039" stroke="#07915b" stroke-width="2" stroke-opacity="0.698039" points="494.38,-252.65 499.82,-261.74 501.24,-251.24 494.38,-252.65"/>
</g>
<!-- gitlab.aescorp.ru/dsp_dev/claim/nikitin/postgres_pgx&#45;&gt;gitlab.aescorp.ru/dsp_dev/claim/nikitin/stopapp -->
<g id="edge50" class="edge">
<title>gitlab.aescorp.ru/dsp_dev/claim/nikitin/postgres_pgx:e&#45;&gt;gitlab.aescorp.ru/dsp_dev/claim/nikitin/stopapp</title>
<path fill="none" stroke="#912907" stroke-width="2" stroke-opacity="0.698039" d="M343,-43.87C383.54,-43.87 468.81,-328.73 495.11,-420.05"/>
<polygon fill="#912907" fill-opacity="0.698039" stroke="#912907" stroke-width="2" stroke-opacity="0.698039" points="491.76,-421.07 497.88,-429.72 498.49,-419.15 491.76,-421.07"/>
</g>
<!-- gitlab.aescorp.ru/dsp_dev/claim/nikitin/stopapp&#45;&gt;gitlab.aescorp.ru/dsp_dev/claim/nikitin/contextmain -->
<g id="edge51" class="edge">
<title>gitlab.aescorp.ru/dsp_dev/claim/nikitin/stopapp:e&#45;&gt;gitlab.aescorp.ru/dsp_dev/claim/nikitin/contextmain</title>
<path fill="none" stroke="#899107" stroke-width="2" stroke-opacity="0.698039" d="M540,-447.87C591.58,-447.87 643,-413.55 673.39,-388.79"/>
<polygon fill="#899107" fill-opacity="0.698039" stroke="#899107" stroke-width="2" stroke-opacity="0.698039" points="675.96,-391.2 681.38,-382.09 671.47,-385.83 675.96,-391.2"/>
</g>
<!-- gitlab.aescorp.ru/dsp_dev/claim/nikitin/stopapp&#45;&gt;gitlab.aescorp.ru/dsp_dev/claim/nikitin/logger -->
<g id="edge52" class="edge">
<title>gitlab.aescorp.ru/dsp_dev/claim/nikitin/stopapp:e&#45;&gt;gitlab.aescorp.ru/dsp_dev/claim/nikitin/logger</title>
<path fill="none" stroke="#91070d" stroke-width="2" stroke-opacity="0.698039" d="M540,-447.87C602.72,-447.87 656.38,-507.41 683.03,-543.3"/>
<polygon fill="#91070d" fill-opacity="0.698039" stroke="#91070d" stroke-width="2" stroke-opacity="0.698039" points="680.52,-545.81 689.22,-551.87 686.2,-541.71 680.52,-545.81"/>
</g>
<!-- gitlab.aescorp.ru/dsp_dev/claim/nikitin/stopapp&#45;&gt;gitlab.aescorp.ru/dsp_dev/claim/nikitin/micro -->
<g id="edge53" class="edge">
<title>gitlab.aescorp.ru/dsp_dev/claim/nikitin/stopapp:e&#45;&gt;gitlab.aescorp.ru/dsp_dev/claim/nikitin/micro</title>
<path fill="none" stroke="#629107" stroke-width="2" stroke-opacity="0.698039" d="M540,-447.87C656.29,-447.87 787.44,-493.28 854.42,-519.95"/>
<polygon fill="#629107" fill-opacity="0.698039" stroke="#629107" stroke-width="2" stroke-opacity="0.698039" points="853.24,-523.25 863.83,-523.74 855.86,-516.75 853.24,-523.25"/>
</g>
<!-- gitlab.aescorp.ru/dsp_dev/claim/nikitin/whatsapp_connect -->
<g id="node22" class="node">
<title>gitlab.aescorp.ru/dsp_dev/claim/nikitin/whatsapp_connect</title>
<g id="a_node22"><a xlink:href="https://pkg.go.dev/gitlab.aescorp.ru/dsp_dev/claim/nikitin/whatsapp_connect" xlink:title="whatsapp_connect" target="_graphviz">
<polygon fill="none" stroke="#329107" stroke-width="2" stroke-opacity="0.698039" points="360,-868.87 216,-868.87 216,-832.87 360,-832.87 360,-868.87"/>
<text text-anchor="middle" x="288" y="-848.37" font-family="Times,serif" font-size="10.00">whatsapp_connect</text>
</a>
</g>
</g>
<!-- gitlab.aescorp.ru/dsp_dev/claim/nikitin/whatsapp_connect&#45;&gt;gitlab.aescorp.ru/dsp_dev/claim/nikitin/contextmain -->
<g id="edge54" class="edge">
<title>gitlab.aescorp.ru/dsp_dev/claim/nikitin/whatsapp_connect:e&#45;&gt;gitlab.aescorp.ru/dsp_dev/claim/nikitin/contextmain</title>
<path fill="none" stroke="#899107" stroke-width="2" stroke-opacity="0.698039" d="M360,-850.87C461.08,-850.87 476.97,-790.89 540,-711.87 622.79,-608.06 674.31,-454.76 693.02,-392.1"/>
<polygon fill="#899107" fill-opacity="0.698039" stroke="#899107" stroke-width="2" stroke-opacity="0.698039" points="696.48,-392.75 695.94,-382.17 689.77,-390.77 696.48,-392.75"/>
</g>
<!-- gitlab.aescorp.ru/dsp_dev/claim/nikitin/whatsapp_connect&#45;&gt;gitlab.aescorp.ru/dsp_dev/claim/nikitin/logger -->
<g id="edge55" class="edge">
<title>gitlab.aescorp.ru/dsp_dev/claim/nikitin/whatsapp_connect:e&#45;&gt;gitlab.aescorp.ru/dsp_dev/claim/nikitin/logger</title>
<path fill="none" stroke="#91070d" stroke-width="2" stroke-opacity="0.698039" d="M360,-850.87C440,-850.87 470.86,-890.12 540,-849.87 636,-793.97 679.83,-656.91 694.75,-597.77"/>
<polygon fill="#91070d" fill-opacity="0.698039" stroke="#91070d" stroke-width="2" stroke-opacity="0.698039" points="698.17,-598.54 697.13,-588 691.36,-596.89 698.17,-598.54"/>
</g>
<!-- gitlab.aescorp.ru/dsp_dev/claim/nikitin/whatsapp_connect&#45;&gt;gitlab.aescorp.ru/dsp_dev/claim/nikitin/micro -->
<g id="edge56" class="edge">
<title>gitlab.aescorp.ru/dsp_dev/claim/nikitin/whatsapp_connect:e&#45;&gt;gitlab.aescorp.ru/dsp_dev/claim/nikitin/micro</title>
<path fill="none" stroke="#629107" stroke-width="2" stroke-opacity="0.698039" d="M360,-850.87C466.14,-850.87 377.56,-1008.32 468,-1063.87 533.22,-1103.92 684.26,-1089.28 756,-1024.87 826.5,-961.57 879.62,-660.59 894.68,-566.82"/>
<polygon fill="#629107" fill-opacity="0.698039" stroke="#629107" stroke-width="2" stroke-opacity="0.698039" points="898.14,-567.36 896.25,-556.93 891.22,-566.26 898.14,-567.36"/>
</g>
<!-- gitlab.aescorp.ru/dsp_dev/claim/nikitin/whatsapp_connect&#45;&gt;gitlab.aescorp.ru/dsp_dev/claim/nikitin/stopapp -->
<g id="edge57" class="edge">
<title>gitlab.aescorp.ru/dsp_dev/claim/nikitin/whatsapp_connect:e&#45;&gt;gitlab.aescorp.ru/dsp_dev/claim/nikitin/stopapp</title>
<path fill="none" stroke="#912907" stroke-width="2" stroke-opacity="0.698039" d="M360,-850.87C439.71,-850.87 486.32,-567.28 499.27,-475.89"/>
<polygon fill="#912907" fill-opacity="0.698039" stroke="#912907" stroke-width="2" stroke-opacity="0.698039" points="502.74,-476.35 500.65,-465.97 495.8,-475.39 502.74,-476.35"/>
</g>
</g>
</svg>
